<mxfile host="app.diagrams.net" modified="2023-07-20T17:55:28.054Z" agent="Mozilla/5.0 (Macintosh; Intel Mac OS X 10_15_7) AppleWebKit/537.36 (KHTML, like Gecko) Chrome/114.0.0.0 Safari/537.36" version="21.6.5" etag="RpP2NlIz4X87ECVP2wdT" type="github">
  <diagram name="Page-1" id="KmNzulk3by6vZDHBeoWT">
    <mxGraphModel>
      <root>
        <mxCell id="0" />
        <mxCell id="1" parent="0" />
      </root>
    </mxGraphModel>
  </diagram>
</mxfile>
